<?xml version="1.0" standalone="no"?><!DOCTYPE svg PUBLIC "-//W3C//DTD SVG 1.1//EN" "http://www.w3.org/Graphics/SVG/1.1/DTD/svg11.dtd"><svg t="1526267367721" class="icon" style="" viewBox="0 0 1024 1024" version="1.1" xmlns="http://www.w3.org/2000/svg" p-id="3568" xmlns:xlink="http://www.w3.org/1999/xlink" width="28" height="28"><defs><style type="text/css"></style></defs><path d="M645.568 409.6h-256a32 32 0 0 1 0-64h256a32 32 0 1 1 0 64m0 128h-256a32 32 0 0 1 0-64h256a32 32 0 1 1 0 64m0 128h-256a32 32 0 0 1 0-64h256a32 32 0 1 1 0 64M512 128C300.288 128 128 300.256 128 512c0 211.712 172.288 384 384 384 211.744 0 384-172.288 384-384 0-211.744-172.256-384-384-384" p-id="3569" fill="#bfbfbf"></path></svg>